# xmcd CD database file generated by OrangeCD 5.0
#
# Track frame offsets:
#	182
#	10232
#	20582
#	33807
#	45022
#	55860
#	66892
#	79862
#	90285
#	103060
#	113080
#	124185
#	134417
#	147372
#	167087
#	178935
#	189542
#	200935
#	213247
#	222550
#	236357
#	248430
#	259500
#	273010
#
# Disc length: 3802 seconds
#
# Revision: 0
# Processed by: cddbd v1.4PL0 Copyright (c) Steve Scherf et al.
# Submitted via: OrangeCD 5.0
#
DISCID=4c0ed818
DTITLE=Chris Kenner - I Like It Like That
DYEAR=1990
DGENRE=Blues
TTITLE0=I Like It Like That pt.1
TTITLE1=Anybody Here Seen My Babab?
TTITLE2=Shoo-Rah
TTITLE3=Johnny Little
TTITLE4=Gonna Getcha Baby
TTITLE5=Never Reach Perfection
TTITLE6=Something You Got
TTITLE7=That's My Girl
TTITLE8=Land Of 1000 Dances
TTITLE9=She Can Dance
TTITLE10=How Far
TTITLE11=How Far
TTITLE12=Time
TTITLE13=All Night Rambler pts.1&2
TTITLE14=Packing Up
TTITLE15=(I Found) Peace
TTITLE16=My Wife
TTITLE17=I'm Lonely, Take Me
TTITLE18=What's Wrong With Life
TTITLE19=The Life Of My Little Baby
TTITLE20=Get On This Train
TTITLE21=I'm The Greatest
TTITLE22=The Took My Money
TTITLE23=Cinderella
EXTD=
EXTT0=
EXTT1=
EXTT2=
EXTT3=
EXTT4=
EXTT5=
EXTT6=
EXTT7=
EXTT8=
EXTT9=
EXTT10=
EXTT11=
EXTT12=
EXTT13=
EXTT14=
EXTT15=
EXTT16=
EXTT17=
EXTT18=
EXTT19=
EXTT20=
EXTT21=
EXTT22=
EXTT23=
PLAYORDER=
